<?xml version='1.0' encoding='UTF-8'?>
<svg viewBox="-4 -2 32 32" xmlns="http://www.w3.org/2000/svg">
  <g id="Layer_1" transform="translate(-4, -2)">
    <g id="Businesswoman">
      <path d="M16, 20C17.6, 20 18.8, 19 19.6, 17.8C22.4, 17.4 24.7, 16.5 25.7, 15.4C24.7, 14.8 24.1, 13.7 23.9, 12.5C23.9, 12.3 23.9, 12.2 23.9, 12L23.9, 10C23.9, 7.8 22.1, 6 19.9, 6C19.9, 3.8 18.1, 2 15.9, 2C11.5, 2 7.9, 5.6 7.9, 10L7.9, 12C7.9, 12.2 7.9, 12.3 7.9, 12.5C7.8, 13.7 7.1, 14.7 6.1, 15.4C7.1, 16.5 9.4, 17.4 12.3, 17.8C13.2, 19 14.4, 20 16, 20z" fill="#D11C1C" class="Red" />
    </g>
  </g>
  <g id="Layer_1" transform="translate(-4, -2)">
    <g id="Businesswoman">
      <path d="M28, 28C28, 24 22.3, 23.3 20, 20L16, 28L12, 20C9.8, 23.5 4, 24 4, 28L4, 28L4, 28.5L4, 30L28, 30L28, 28.5L28, 28L28, 28z" fill="#D11C1C" class="Red" />
    </g>
  </g>
</svg>