<?xml version='1.0' encoding='UTF-8'?>
<svg viewBox="-2 0 32 32" xmlns="http://www.w3.org/2000/svg">
  <g id="Layer_1" transform="translate(-4, -2)">
    <g id="Report">
      <path d="M27, 4L24, 4L24, 26L8, 26L8, 4L5, 4C4.4, 4 4, 4.4 4, 5L4, 29C4, 29.6 4.4, 30 5, 30L27, 30C27.6, 30 28, 29.6 28, 29L28, 5C28, 4.4 27.6, 4 27, 4z" fill="#FFB115" class="Yellow" />
    </g>
  </g>
  <g id="Layer_1" transform="translate(-4, -2)">
    <g id="Report">
      <path d="M20, 4L20, 3C20, 2.4 19.6, 2 19, 2L13, 2C12.4, 2 12, 2.4 12, 3L12, 4L10, 4L10, 8L13, 8L19, 8L22, 8L22, 4L20, 4z" fill="#727272" class="Black" />
    </g>
  </g>
  <g id="Layer_1" transform="translate(-4, -2)">
    <g id="Report">
      <g opacity="0.75" class="st0">
        <rect x="10" y="20" width="12" height="2" rx="0" ry="0" fill="#727272" opacity="0.75" class="Black" />
      </g>
    </g>
  </g>
  <g id="Layer_1" transform="translate(-4, -2)">
    <g id="Report">
      <g opacity="0.75" class="st0">
        <rect x="10" y="12" width="12" height="2" rx="0" ry="0" fill="#727272" opacity="0.75" class="Black" />
      </g>
    </g>
  </g>
  <g id="Layer_1" transform="translate(-4, -2)">
    <g id="Report">
      <g opacity="0.75" class="st0">
        <rect x="10" y="16" width="12" height="2" rx="0" ry="0" fill="#727272" opacity="0.75" class="Black" />
      </g>
    </g>
  </g>
  <g id="Layer_1" transform="translate(14, 16)">
    <g id="Print">
      <path d="M15, 4L14, 4L14, 8L2, 8L2, 4L1, 4C0.5, 4 0, 4.4 0, 5L0, 13C0, 13.6 0.5, 14 1, 14L4, 14L4, 15C4, 15.6 4.5, 16 5, 16L11, 16C11.5, 16 12, 15.6 12, 15L12, 14L15, 14C15.5, 14 16, 13.6 16, 13L16, 5C16, 4.4 15.5, 4 15, 4z" fill="#D11C1C" class="Red" />
    </g>
  </g>
  <g id="Layer_1" transform="translate(14, 16)">
    <g id="Print">
      <path d="M12, 6L12, 1C12, 0.5 11.5, 0 11, 0L5, 0C4.5, 0 4, 0.5 4, 1L4, 6L12, 6z" fill="#D11C1C" class="Red" />
    </g>
  </g>
  <g id="Layer_1" transform="translate(14, 16)">
    <g id="Print">
      <path d="M10, 10L10, 14L6, 14L6, 10L10, 10z" fill="#FFFFFF" class="White" />
    </g>
  </g>
  <g id="Layer_1" transform="translate(14, 16)">
    <g id="Print">
      <polygon points="12,4 12,6 10,6 10,2 6,2 6,6 4,6 4,4 2,4 2,8 4,8 14,8 14,6 14,4  " fill="#FFFFFF" class="White" />
    </g>
  </g>
</svg>