<?xml version='1.0' encoding='UTF-8'?>
<svg viewBox="-4 -2 32 32" xmlns="http://www.w3.org/2000/svg">
  <g id="Layer_1" transform="translate(-4, -2)">
    <g id="Hotel_1_">
      <path d="M27, 6L22, 6L22, 3C22, 2.5 21.6, 2 21, 2L11, 2C10.4, 2 10, 2.5 10, 3L10, 6L5, 6C4.4, 6 4, 6.5 4, 7L4, 29C4, 29.5 4.4, 30 5, 30L14, 30L14, 22L18, 22L18, 30L27, 30C27.6, 30 28, 29.5 28, 29L28, 7C28, 6.5 27.6, 6 27, 6zM12, 26L8, 26L8, 22L12, 22L12, 26zM12, 20L8, 20L8, 16L12, 16L12, 20zM12, 14L8, 14L8, 10L11, 10L12, 10L12, 14zM18, 20L14, 20L14, 16L18, 16L18, 20zM18, 14L14, 14L14, 10L18, 10L18, 14zM24, 26L20, 26L20, 22L24, 22L24, 26zM24, 20L20, 20L20, 16L24, 16L24, 20zM24, 14L20, 14L20, 10L21, 10L24, 10L24, 14z" fill="#D11C1C" class="Red" />
    </g>
  </g>
  <g id="Layer_1" transform="translate(12, 14)">
    <g id="Clock_1_">
      <circle cx="8" cy="8" r="8" fill="#039C23" class="Green" />
    </g>
  </g>
  <g id="Layer_1" transform="translate(12, 14)">
    <g id="Clock_1_">
      <circle cx="8" cy="8" r="6" fill="#FFFFFF" class="White" />
    </g>
  </g>
  <g id="Layer_1" transform="translate(12, 14)">
    <g id="Clock_1_">
      <polygon points="8,8 8,4 6,4 6,8 6,10 8,10 12,10 12,8  " fill="#039C23" class="Green" />
    </g>
  </g>
</svg>